<svg width="726" height="164" viewBox="0 0 726 164" fill="none" xmlns="http://www.w3.org/2000/svg">
<g opacity="0.04">
<path d="M97.4427 226.093C106.223 230.222 118.501 228.874 123.035 220.616C126.553 214.079 128.716 207.614 130.881 201.142C132.692 195.727 134.505 190.307 137.116 184.836C138.826 181.12 140.874 177.951 144.051 175.229C147.557 172.238 151.964 170.654 156.16 169.171C158.166 168.471 161.343 167.148 163.306 166.171C162.732 166.22 162.147 166.272 161.552 166.325C155.497 166.865 148.49 167.49 142.72 165.648C137.714 163.971 133.779 161.528 129.97 157.752C129.675 157.466 126.464 153.792 126.625 153.623C123.852 155.545 113.445 158.418 103.131 155.722C101.531 155.291 99.7943 154.184 98.1149 153.115C97.0691 152.449 96.0456 151.797 95.0917 151.331C98.5129 155.545 101.378 161.165 101.985 163.466C104.139 171.634 99.1659 181.097 94.2852 190.384C86.9456 204.35 79.8146 217.919 97.4427 226.093Z" fill="#1B1C1E"></path>
<path fill-rule="evenodd" clip-rule="evenodd" d="M257.454 63.476C261.861 62.4311 280.56 63.2569 275.167 96.8965C267.549 144.162 280.139 156.827 280.139 156.827C280.139 156.827 253.392 167.058 244.654 141.575C243.971 139.738 242.606 136.317 242.606 136.317C242.606 136.317 242.092 150.111 245.429 154.923C253.155 166.126 250.62 180.383 249.31 187.75C249.119 188.827 248.953 189.758 248.85 190.509C243.676 224.612 221.463 238.044 219.314 237.834C217.858 237.638 216.514 233.503 215.085 229.101C212.322 220.595 209.236 211.094 204.382 227.115C192.964 264.749 149.061 310.75 142.463 309.832C131.044 286.633 126.241 291.95 126.241 291.95C126.241 291.95 117.899 298.936 110.753 305.442C106.86 308.939 103.607 313.219 101.424 316.683C99.1491 320.104 93.5959 312.234 91.8431 302.349C89.9976 292.532 90.4274 286.068 90.4274 286.068C90.4274 286.068 84.8573 287.332 81.099 296.122C77.2901 304.961 74.4587 295.38 73.7846 291.992C70.574 276.572 70.8268 262.651 70.8268 262.651C70.8268 262.651 71.0459 252.732 53.2823 261.757C46.7642 266.658 46.6174 262.713 46.3664 255.969C46.3205 254.736 46.2711 253.408 46.1786 252.024C45.7052 246.001 41.5904 235.398 36.6887 222.767C33.6498 214.937 30.3085 206.327 27.3448 197.546C25.6847 192.582 24.6567 185.504 24.9853 174.069C25.3392 162.76 33.7154 148.788 33.7154 148.788C23.7466 155.454 16.8619 155.454 10.3143 150.718C3.80888 146.058 0 125.227 0 125.227C0 125.227 22.2045 141.98 31.7098 120.222C35.2825 112.1 31.5962 110.785 25.6879 108.676C17.9253 105.905 6.32708 101.766 2.31734 79.0233C2.16145 78.2338 2.63275 78.7947 3.57364 79.9145C4.20944 80.6712 5.05966 81.683 6.07567 82.7058C12.3283 89.2113 24.9095 96.5089 33.1677 49.5382C40.2714 8.54205 51.6896 19.0165 51.6896 19.0165C51.6896 19.0165 55.212 9.17404 54.6053 1.35402C54.0491 -6.56712 56.83 -12.5248 56.83 -12.5248C58.1951 -17.9854 77.7114 -41.2263 77.7114 -41.2263C77.7114 -41.2263 83.8377 -39.3134 87.2674 -36.2545C97.6154 -26.8081 93.8487 -15.7017 93.8487 -15.7017C93.8487 -15.7017 107.331 -11.9939 110.247 -25.0891C114.941 -45.7767 136.732 -48.0688 136.732 -48.0688C136.732 -48.0688 135.915 -32.6395 143.743 -24.7942C144.482 -24.0126 147.867 -26.0402 152.85 -29.0248C160.601 -33.6674 172.218 -40.6255 183.754 -42.9285C190.183 -44.1588 195.61 -44.0746 199.807 -43.4931C207.045 -42.4903 210.98 -39.9876 210.98 -39.9876C210.98 -39.9876 192.534 -3.34809 222.272 -12.0782C231.608 -14.867 236.3 -19.155 239.127 -21.7386C241.289 -23.7142 242.36 -24.6933 243.583 -23.2436C244.999 -21.6678 244.999 -12.9799 241.831 -7.39293C238.241 -1.14029 231.137 1.7838 231.137 1.7838C231.137 1.7838 244.839 10.4044 258.398 7.06736C262.931 5.92133 272.866 5.12079 272.866 5.12079C272.866 5.12079 283.644 37.3194 269.049 55.5127C265.451 60.139 260.1 62.5491 257.454 63.476ZM124.786 67.5129L123.294 66.3837C122.57 71.6252 118.163 75.5773 112.769 75.4088C106.989 75.2402 102.447 70.496 102.624 64.6899C102.7 61.9091 103.896 59.4654 105.716 57.6283L92.8234 50.8785L91.8459 50.3813L91.7532 51.4262L91.6183 52.8503C91.5425 54.6284 90.8936 70.5381 103.011 78.6278C107.157 81.5771 111.573 82.9676 116.064 83.2035C118.205 83.2962 120.252 83.0602 122.258 82.5462C122.443 85.1332 121.879 88.8157 121.71 89.3887C121.118 91.8935 120.015 94.1859 119.035 96.2223C118.258 97.8375 117.558 99.2915 117.252 100.563C116.486 103.529 119.528 105.905 119.528 105.905L120.598 104.776C121.879 103.268 128.637 94.647 130.777 82.3608C131.898 76.1166 129.968 71.2459 124.786 67.5129ZM199.293 81.6555L218.557 84.1161L219.88 84.251L219.197 85.338L218.422 86.6779C218.38 86.838 208.798 103.405 191.802 103.405C180.565 103.117 176.287 99.5024 171.354 95.3347L171.343 95.3254C171.078 95.1016 170.811 94.8761 170.541 94.6496C170.541 94.6496 169.766 95.0962 168.645 100.986L168.562 101.609C167.687 108.182 166.447 117.506 158.845 117.596C158.845 117.596 157.614 100.405 162.662 88.9615C166.513 80.3326 173.271 78.4955 178.277 78.4955L180.333 78.6725L181.352 78.8326C179.676 80.7118 178.58 83.1471 178.58 85.8773C178.58 91.6834 183.206 96.3349 189.029 96.3349C194.802 96.3349 199.512 91.6834 199.512 85.8773C199.512 84.3353 199.15 82.9027 198.56 81.5881L199.293 81.6555ZM97.8266 232.69C86.3578 228.873 79.3805 221.618 80.0714 209.146C80.3792 201.986 84.2927 195.662 88.0801 189.543C90.5151 185.608 92.898 181.758 94.2368 177.824C98.6047 164.524 92.971 157.017 85.1478 146.593L84.4786 145.701C83.7764 144.792 83.0717 143.996 82.3889 143.224C80.9002 141.542 79.5155 139.977 78.4872 137.62C77.4592 135.117 78.1839 130.938 82.4646 133.23C86.7617 135.46 88.6422 136.8 91.4841 138.826C92.4653 139.526 93.5615 140.307 94.9109 141.235C97.6581 142.946 99.6636 144.033 102.621 145.398C104.72 146.333 106.944 147.125 109.253 147.547L109.451 147.586C111.715 148.033 115.01 148.683 117.343 148.078C121.107 147.165 124.304 141.354 126.225 137.863C126.399 137.548 126.561 137.251 126.713 136.979C129.242 132.842 125.424 129.64 122.483 127.179C121.711 126.534 120.721 125.956 119.727 125.375C118.67 124.757 117.607 124.137 116.795 123.429C116.479 123.177 116.039 122.899 115.564 122.597C114.482 121.913 113.212 121.108 112.767 120.219C112.118 119.081 112.337 113.865 115.759 114.076C116.78 114.076 117.725 115.228 118.577 116.266C118.97 116.745 119.343 117.199 119.694 117.505C121.363 118.921 122.947 120.126 124.784 121.331C127.792 123.303 130.775 125.182 134.205 126.219C137.71 127.002 141.224 126.901 144.823 126.64C147.039 126.547 148.969 126.219 151.151 125.797C151.634 125.725 152.232 125.514 152.86 125.291C154.072 124.862 155.4 124.392 156.249 124.803C159.367 126.387 156.881 130.938 155.819 131.687C154.998 132.199 153.545 132.264 152.282 132.32C151.693 132.346 151.145 132.37 150.721 132.437C149.665 132.677 148.428 132.688 147.187 132.698C146.073 132.708 144.956 132.717 143.963 132.893C140.146 133.482 135.233 134.418 135.359 139.238C135.365 139.728 135.361 140.281 135.357 140.878C135.329 144.938 135.288 151.051 138.014 153.622C139.775 155.249 143.146 156.386 145.37 157.136C153.133 159.915 160.204 159.479 167.546 159.027C171.337 158.794 175.202 158.556 179.271 158.754C184.024 159.058 182.777 164.147 180.678 165.782C176.156 169.175 170.474 170.947 164.834 172.706C155.372 175.656 146.027 178.571 142.463 189.04C142.177 189.857 141.683 191.455 141.036 193.542C138.576 201.491 133.916 216.542 130.219 222.629C127.489 227.163 123.208 230.929 118.287 232.733C112.337 234.898 103.86 234.721 97.8266 232.69Z" fill="#1B1C1E"></path>
<path fill-rule="evenodd" clip-rule="evenodd" d="M921.98 241.864C942.42 239.699 959.505 237.889 970.273 243.106C990.658 253.033 986.284 273.518 986.284 273.518C986.284 273.518 971.849 265.167 978.961 272.153C986.015 279.139 977.023 297.754 973.703 292.655C969.591 286.487 963.077 286.42 963.077 286.42C963.077 286.42 966.768 300.391 967.197 304.343C968.006 311.295 965.175 315.29 962.613 318.703C962.015 319.453 960.768 319.233 960.591 318.483C958.549 308.536 951.107 309.396 949.974 309.526L949.906 309.534C945.667 310.099 938.302 328.874 938.993 341.177C940.737 364.451 915.971 329.826 915.971 329.826C915.971 329.826 904.612 370.333 887.169 365.682C890.935 357.196 888.197 347.766 888.197 347.766C888.197 347.766 880.318 350.48 875.995 355.401C873.812 357.946 871.815 362.951 870.737 372.179C867.821 399.33 857.886 410.31 845.06 412.846C841.352 413.579 838.353 413.748 835.639 413.63L835.635 413.636L834.7 414.891L831.607 424.624C831.186 426.655 830.503 427.27 830.284 427.27C829.947 427.27 828.11 426.166 826.265 420.411L824.428 414.259C823.762 411.613 823.433 409.439 823.265 407.509L823.177 407.401C823.088 407.294 822.997 407.189 822.906 407.085L822.754 406.914L822.532 406.668C822.038 406.119 821.537 405.563 821.095 404.858C817.758 399.507 820.825 392.731 821.853 390.819C821.17 391.687 818.693 393.709 809.491 397.172C796.028 402.345 787.83 396.442 783.826 388.086C779.775 390.008 777.399 393.731 776.195 397.033L776.116 397.203C775.573 398.378 774.894 399.848 773.633 399.671C772.605 399.46 772.141 398.011 772.217 395.112V395.07L772.236 394.71C772.529 389.165 772.991 380.406 780.627 373.818C780.723 373.737 780.806 373.652 780.89 373.566C780.928 373.527 780.966 373.488 781.005 373.45L780.965 373.489L780.897 373.555C780.808 373.643 780.72 373.73 780.621 373.813C781.093 367.561 784.084 361.915 788.483 357.398C788.567 357.364 789.199 356.539 787.371 356.193C782.719 354.954 777.158 351.752 775.7 345.129C776.685 345.145 777.597 345.139 778.44 345.096C777.596 345.138 776.683 345.142 775.696 345.123L775.124 345.11C774.285 345.09 773.417 345.07 772.443 345.022C766.266 344.77 761.353 351.014 761.353 351.098L760.704 351.89L760.19 351.654L759.853 350.904C759.676 350.618 758.69 347.534 762.204 339.141C765.921 330.63 775.94 329.997 776.631 329.997C776.724 329.972 777.642 329.88 778.763 329.863L778.771 329.863C792.484 308.366 833.667 325.292 833.667 325.292C834.181 325.208 839.878 322.452 842.364 320.691C854.127 312.517 852.88 303.644 852.467 301.259C849.712 286.074 807.485 287.49 807.485 287.49C807.485 287.49 768.621 284.583 740.678 281.414C712.651 278.254 632.453 261.788 632.453 261.788C596.429 252.662 572.539 240.738 557.776 231.418C550.461 226.767 545.456 222.739 542.271 220C542.035 219.774 541.797 219.538 541.556 219.299C540.021 217.774 538.346 216.111 536.161 215.871C536.085 215.787 534.661 215.652 534.661 215.652C454.021 224.641 404.227 267.96 356.47 309.507C325.97 336.041 296.301 361.853 259.958 377.538C191.237 407.098 138.085 402.706 97.9123 399.387L97.8776 399.384L97.7879 399.376C96.6422 399.282 95.5042 399.188 94.3795 399.096V328.811C96.7432 330.6 99.4775 331.671 102.597 331.671C106.751 331.671 110.737 329.531 113.265 325.781C114.925 323.245 117.495 319.604 120.655 316.739C122.763 314.878 124.945 312.965 126.966 311.193L127.006 311.158C128.009 310.279 128.972 309.435 129.866 308.649C129.866 308.649 131.534 311.194 131.618 311.43C132.423 312.828 133.194 314.288 133.963 315.745C134.419 316.607 134.874 317.469 135.335 318.315C136.329 320.438 137.652 322.705 139.792 323.818C141.259 324.551 142.673 324.468 144.183 324.379C144.563 324.356 144.951 324.333 145.346 324.323C158.104 324.281 196.361 281.06 212.153 247.109C214.04 249.62 216.686 251.364 220.461 251.904L221.144 251.988H221.919C231.45 251.988 256.536 236.685 262.823 192.765C262.907 191.872 264.23 176.156 264.576 170.013C272.016 172.305 276.693 171.513 287.479 169.482C319.185 163.647 346.687 153.485 375.063 142.999C429.76 122.788 487.704 101.377 585.255 107.452C656.428 111.892 720.593 134.936 767.13 151.649C773.058 153.778 778.7 155.804 784.034 157.676C831.106 174.234 861.315 173.864 871.242 157.676C880.141 143.207 876.088 120.548 808.168 111.11C768.339 105.623 724.275 102.585 690.589 100.263C681.855 99.6609 673.817 99.1068 666.733 98.5707C643.535 96.7336 605.1 93.6747 585.07 70.1136C572.876 55.8302 567.054 36.6004 569.624 18.011C571.899 2.4552 579.727 -12.991 587.48 -26.5328C589.57 -30.0467 591.752 -33.468 594.491 -36.6365C594.779 -37.0091 595.211 -37.4102 595.663 -37.8289C596.283 -38.4044 596.94 -39.0134 597.306 -39.6279L590.648 -26.1788C590.648 -26.1788 604.864 -37.3864 616.712 -40.3611L628.602 -43.3189C628.602 -43.3189 617.437 -39.628 611.437 -31.4624C610.182 -29.6483 609.117 -27.9403 608.105 -26.3168L608.101 -26.3099L607.94 -26.0525C604.586 -20.2464 607.165 -20.6509 612.937 -26.0019C618.507 -31.1001 625.78 -36.6786 633.043 -38.878C647.908 -43.3189 653.891 -43.3189 653.891 -43.3189C653.891 -43.3189 653.723 -74.599 690.269 -72.349C773.328 -67.1735 771.487 -101.262 770.86 -102C779.632 -95.2396 784.967 -90.7883 781.287 -78.3994C773.205 -51.122 738.841 -54.5264 738.841 -54.5264C738.841 -54.5264 756.512 -40.5128 777.95 -49.4114C800.559 -58.8746 806.921 -84.4919 806.921 -84.4919C806.921 -84.4919 825.586 -33.1225 783.124 -11.6006C740.678 10.073 708.623 -2.10368 708.623 -2.10368C708.623 -2.10368 716.207 14.0504 742.262 11.8258C752.273 10.9915 761.863 8.07583 771.116 4.20795C772.853 3.48887 774.587 2.7265 776.327 1.96156C783.275 -1.092 790.317 -4.187 797.972 -4.7328C799.556 -4.88448 815.356 -5.01088 815.356 -4.30304C815.356 -3.8531 811.083 -1.77496 809.39 -0.951591L809.031 -0.776924L808.864 -0.694954L808.766 -0.645821C804.654 1.8485 800.559 4.57033 796.817 7.73879C777.773 23.935 764.046 33.078 738.664 37.3251C696.345 44.3614 653.158 21.1289 659.419 -1.7666C654.953 -8.39002 614.184 -8.51639 605.918 21.3396C602.244 34.5274 614.69 60.3132 661.256 66.9451C686.693 70.6071 706.581 71.5571 728.682 72.6128C752.759 73.7629 779.461 75.0384 818.819 80.0824C830.499 81.5824 897.862 98.6802 916.308 117.506C937.148 138.733 932.96 157.179 932.96 157.179C932.96 157.179 923.707 142.862 916.612 136.525C914.471 134.696 911.042 133.508 911.042 133.508C911.042 133.508 928.982 147.783 930.558 172.423C931.544 187.844 918.971 194.703 918.971 194.703C918.971 194.703 922.291 182.703 919.94 174.529C917.808 167.552 914.859 165.917 914.859 165.917C914.859 165.917 908.935 190.043 884.868 204.183C861.408 217.716 839.279 217.716 794.98 207.84C751.591 198.048 722.502 181.406 722.502 181.406C712.474 176.333 716.721 183.63 716.721 183.63C716.721 183.63 728.055 230.55 861.408 243.898C881.261 245.929 900.862 244.075 918.196 242.264C919.47 242.13 920.731 241.996 921.98 241.864ZM781.219 373.257C781.191 373.279 781.162 373.305 781.137 373.327L781.175 373.294L781.219 373.257ZM827.017 397.161C827.729 396.754 828.492 396.454 829.265 396.209C832.075 395.33 834.779 395.296 837.046 396.077C834.78 395.295 832.078 395.324 829.269 396.203C828.494 396.45 827.73 396.753 827.017 397.161ZM842.277 404.718C843.126 403.058 842.612 400.548 840.86 398.67C842.613 400.54 843.128 403.058 842.277 404.718Z" fill="#1B1C1E"></path>
<path d="M745.256 294.159C759.766 296.164 761.351 301.094 761.865 308.138C762.927 316.565 759.025 334.093 744.017 336.259C743.343 336.358 742.06 336.368 740.257 336.382C728.642 336.469 695.441 336.72 664.325 362.204C653.724 370.96 650.64 384.224 650.64 384.224C650.64 384.224 640.966 378.763 638.143 367.884C635.991 359.652 621.604 366.118 609.26 371.666C605.127 373.524 601.222 375.279 598.083 376.345C585.636 380.516 584.389 394.235 584.389 394.235L580.159 387.367C576.055 380.609 580.066 365.415 580.066 365.415L566.213 372.392C552.418 379.387 552.418 366.999 552.418 366.999L545.458 369.755C538.615 372.62 538.775 390.451 538.775 390.451C538.775 390.451 530.601 384.476 527.736 369.367C524.829 354.401 514.177 379.724 514.177 379.724C506.897 373.412 503.99 362.786 502.962 358.193C503.122 360.671 502.237 365.415 496.802 372.182C488.703 382.226 474.049 388.791 462.142 384.864C462.159 384.837 462.176 384.811 462.193 384.784C462.225 384.732 462.258 384.679 462.289 384.626C462.24 384.705 462.194 384.787 462.142 384.864C461.291 386.187 460.623 387.641 460.623 389.495C460.623 392.074 461.541 395.411 463.378 399.161C463.378 399.161 465.342 401.25 464.356 401.537C461.137 402.498 446.862 391.686 447.157 380.226C447.309 377.689 448.269 375.625 449.356 373.872C448.741 372.81 448.154 371.693 447.615 370.454C441.716 356.373 455.713 344.323 455.713 344.323C455.713 344.323 453.783 344.862 447.37 347.053C424.98 354.806 414.43 342.654 413.073 329.736C413.174 329.724 413.273 329.711 413.372 329.698C413.592 329.667 413.809 329.634 414.027 329.601C413.873 329.625 413.715 329.648 413.56 329.67C413.497 329.679 413.436 329.689 413.372 329.698C413.332 329.703 413.289 329.708 413.249 329.713L413.073 329.736C406.206 330.57 402.151 333.831 399.859 335.794C399.859 335.794 399.69 335.971 399.522 336.064C399.429 335.878 398.587 326.188 404.915 318.317C407.485 314.98 411.421 312.064 417.066 310.236C417.369 310.145 417.657 310.099 417.944 310.054C418.136 310.024 418.328 309.993 418.524 309.949C421.474 306.647 426.001 303.866 432.986 302.383C433.157 302.348 433.321 302.312 433.481 302.276C433.589 302.252 433.695 302.228 433.8 302.204C434.32 302.085 434.812 301.973 435.379 301.894C439.061 301.094 442.795 300.394 446.587 299.863C444.547 296.451 443.898 291.866 447.033 286.33C448.381 283.937 449.856 281.788 451.474 279.825L451.393 279.736C451.029 279.348 450.68 278.977 450.274 278.563C444.838 272.723 434.869 274.13 434.869 274.13C434.869 274.13 436.235 270.793 446.246 266.664C456.096 262.619 465.088 270.692 465.088 270.692L465.307 270.868L465.627 271.122C470.017 270.119 475.229 269.822 481.861 270.606C497.476 272.46 516.739 290.24 525.082 298.717L529.529 298.973C537.268 299.419 544.39 299.83 545.112 299.83C556.884 299.745 582.561 306.554 590.001 308.56C583.976 306.647 569.364 301.22 546.182 279.74C526.666 261.598 538.438 239.107 542.028 235.104C545.028 237.573 579.721 260.595 623.043 271.676C664.241 282.252 742.728 293.906 745.256 294.159Z" fill="#1B1C1E"></path>
</g>
</svg>