<svg xmlns="http://www.w3.org/2000/svg" width="17.377" height="21.024" viewBox="0 0 17.377 21.024" fill="none">
  <path d="M 11.791 0.028 L 11.899 0.428 L 11.899 0.428 L 11.791 0.028 Z M 0.6 3.034 L 0.493 2.634 L 0.493 2.634 L 0.6 3.034 Z M 0.029 4.017 L -0.37 4.127 L -0.37 4.127 L 0.029 4.017 Z M 4.586 20.434 L 4.187 20.545 L 4.187 20.545 L 4.586 20.434 Z M 5.586 20.996 L 5.693 21.395 L 5.693 21.395 L 5.586 20.996 Z M 16.777 17.991 L 16.67 17.591 L 16.67 17.591 L 16.777 17.991 Z M 17.348 17.007 L 16.949 17.118 L 16.949 17.118 L 17.348 17.007 Z M 12.791 0.59 L 13.19 0.479 L 13.19 0.479 L 12.791 0.59 Z M 11.684 -0.371 L 0.493 2.634 L 0.707 3.433 L 11.899 0.428 L 11.684 -0.371 Z M 0.493 2.634 C -0.158 2.808 -0.551 3.474 -0.37 4.127 L 0.428 3.906 C 0.372 3.706 0.49 3.491 0.707 3.433 L 0.493 2.634 Z M -0.37 4.127 L 4.187 20.545 L 4.985 20.324 L 0.428 3.906 L -0.37 4.127 Z M 4.187 20.545 C 4.368 21.196 5.045 21.569 5.693 21.395 L 5.478 20.596 C 5.259 20.655 5.041 20.526 4.985 20.324 L 4.187 20.545 Z M 5.693 21.395 L 16.884 18.39 L 16.67 17.591 L 5.478 20.596 L 5.693 21.395 Z M 16.884 18.39 C 17.535 18.216 17.928 17.55 17.747 16.897 L 16.949 17.118 C 17.005 17.318 16.887 17.533 16.67 17.591 L 16.884 18.39 Z M 17.747 16.897 L 13.19 0.479 L 12.392 0.701 L 16.949 17.118 L 17.747 16.897 Z M 13.19 0.479 C 13.009 -0.171 12.332 -0.545 11.684 -0.371 L 11.899 0.428 C 12.118 0.369 12.336 0.498 12.392 0.701 L 13.19 0.479 Z" fill="currentColor" fill-rule="nonzero"></path>
</svg>