<svg xmlns="http://www.w3.org/2000/svg" width="24" height="18.931" viewBox="0 0 24 18.931" fill="none">
  <path d="M 18.947 1.988 C 18.929 1.609 19.024 1.234 19.22 0.911 C 19.417 0.587 19.706 0.33 20.05 0.172 C 20.395 0.015 20.778 -0.036 21.151 0.026 C 21.525 0.088 21.871 0.261 22.146 0.522 C 22.42 0.782 22.61 1.119 22.691 1.489 C 22.772 1.859 22.741 2.245 22.601 2.596 C 22.461 2.948 22.218 3.25 21.905 3.463 C 21.592 3.676 21.222 3.79 20.844 3.79 C 20.601 3.797 20.359 3.755 20.132 3.668 C 19.905 3.58 19.698 3.449 19.522 3.282 C 19.346 3.114 19.204 2.914 19.106 2.692 C 19.007 2.47 18.953 2.231 18.947 1.988 Z M 6.451 3.444 C 6.736 3.653 7.077 3.773 7.43 3.79 C 7.673 3.797 7.916 3.755 8.143 3.668 C 8.37 3.581 8.577 3.449 8.754 3.282 C 8.93 3.114 9.071 2.913 9.169 2.69 C 9.268 2.468 9.321 2.228 9.326 1.985 C 9.326 1.631 9.222 1.285 9.028 0.989 C 8.833 0.694 8.556 0.462 8.23 0.323 C 7.905 0.183 7.546 0.143 7.198 0.205 C 6.85 0.268 6.528 0.431 6.271 0.675 C 6.015 0.92 5.836 1.233 5.757 1.578 C 5.677 1.923 5.7 2.283 5.824 2.615 C 5.947 2.947 6.165 3.235 6.451 3.444 Z M 3.167 3.79 C 2.813 3.774 2.472 3.654 2.186 3.446 C 1.9 3.237 1.682 2.949 1.558 2.617 C 1.434 2.286 1.41 1.925 1.49 1.58 C 1.569 1.235 1.748 0.921 2.005 0.676 C 2.261 0.432 2.583 0.269 2.932 0.206 C 3.28 0.144 3.64 0.185 3.965 0.325 C 4.29 0.465 4.567 0.697 4.761 0.993 C 4.956 1.289 5.059 1.636 5.058 1.99 C 5.046 2.479 4.84 2.944 4.485 3.281 C 4.131 3.619 3.657 3.802 3.167 3.79 Z M 15.507 3.444 C 15.792 3.653 16.133 3.773 16.486 3.79 C 16.729 3.797 16.971 3.755 17.198 3.667 C 17.425 3.58 17.632 3.449 17.808 3.281 C 17.984 3.113 18.125 2.912 18.224 2.69 C 18.322 2.467 18.376 2.228 18.381 1.985 C 18.381 1.631 18.277 1.285 18.082 0.99 C 17.888 0.695 17.61 0.463 17.285 0.324 C 16.96 0.185 16.601 0.144 16.253 0.207 C 15.905 0.27 15.583 0.433 15.327 0.677 C 15.071 0.921 14.892 1.235 14.813 1.579 C 14.733 1.924 14.757 2.284 14.88 2.616 C 15.004 2.947 15.221 3.235 15.507 3.444 Z M 10.345 11.057 C 10.282 11.057 10.218 11.058 10.154 11.059 L 10.154 11.059 L 10.154 11.059 L 10.154 11.059 L 10.154 11.059 L 10.154 11.059 L 10.154 11.059 L 10.154 11.059 L 10.154 11.059 L 10.154 11.059 C 10.023 11.061 9.89 11.062 9.757 11.057 C 9.54 11.059 9.327 10.997 9.145 10.878 C 8.964 10.758 8.822 10.588 8.739 10.387 C 8.683 10.255 8.654 10.112 8.654 9.968 C 8.648 8.409 8.648 6.85 8.654 5.291 C 8.655 5.005 8.769 4.73 8.97 4.527 C 9.171 4.323 9.444 4.207 9.731 4.203 C 9.769 4.203 9.808 4.203 9.847 4.2 L 14.088 4.2 C 14.301 4.184 14.515 4.23 14.703 4.334 C 14.89 4.437 15.044 4.593 15.145 4.782 C 15.223 4.926 15.266 5.087 15.271 5.251 C 15.28 6.837 15.28 8.422 15.271 10.008 C 15.259 10.29 15.139 10.555 14.935 10.75 C 14.732 10.944 14.461 11.053 14.18 11.053 C 14.045 11.057 13.91 11.055 13.774 11.054 C 13.705 11.053 13.637 11.053 13.568 11.053 C 13.562 11.072 13.559 11.093 13.557 11.113 C 13.559 11.342 13.561 11.57 13.563 11.799 L 13.563 11.799 L 13.563 11.799 L 13.563 11.8 L 13.563 11.8 L 13.563 11.8 L 13.563 11.801 L 13.563 11.801 L 13.563 11.801 L 13.563 11.801 L 13.563 11.801 L 13.563 11.801 L 13.563 11.802 L 13.563 11.802 L 13.563 11.802 L 13.563 11.802 L 13.563 11.802 C 13.567 12.221 13.571 12.641 13.571 13.06 L 13.571 18.099 C 13.582 18.263 13.54 18.427 13.45 18.565 C 13.361 18.703 13.228 18.809 13.074 18.866 C 12.97 18.907 12.859 18.927 12.748 18.927 C 12.221 18.933 11.695 18.932 11.169 18.927 C 11.063 18.932 10.958 18.916 10.858 18.879 C 10.759 18.842 10.668 18.786 10.591 18.713 C 10.514 18.64 10.453 18.553 10.411 18.455 C 10.368 18.358 10.346 18.254 10.345 18.148 C 10.342 18.002 10.343 17.855 10.344 17.707 L 10.344 17.707 C 10.345 17.633 10.345 17.559 10.345 17.485 L 10.345 11.057 Z M 20.024 4.554 L 19.936 4.554 C 19.939 4.57 19.943 4.586 19.949 4.601 C 20.066 4.844 20.121 5.112 20.111 5.381 L 20.111 9.978 C 20.109 10.254 20.032 10.524 19.888 10.759 C 19.744 10.994 19.539 11.186 19.295 11.314 C 19.261 11.327 19.232 11.351 19.213 11.382 C 19.194 11.413 19.186 11.449 19.189 11.485 L 19.189 16.513 C 19.189 16.586 19.189 16.658 19.188 16.731 C 19.187 16.877 19.186 17.022 19.189 17.167 C 19.192 17.398 19.282 17.619 19.443 17.785 C 19.604 17.95 19.822 18.048 20.052 18.057 C 20.416 18.068 20.78 18.065 21.144 18.063 C 21.303 18.062 21.462 18.061 21.62 18.061 C 21.645 18.06 21.669 18.057 21.693 18.052 C 21.916 18.024 22.121 17.915 22.267 17.745 C 22.414 17.575 22.493 17.356 22.488 17.132 L 22.488 11.06 L 22.737 11.06 C 22.9 11.071 23.063 11.048 23.217 10.992 C 23.371 10.936 23.512 10.85 23.63 10.737 C 23.749 10.625 23.843 10.489 23.907 10.338 C 23.97 10.187 24.002 10.025 24 9.862 L 24 5.746 C 24 5.652 23.99 5.559 23.97 5.467 C 23.904 5.199 23.748 4.962 23.528 4.795 C 23.307 4.629 23.036 4.544 22.76 4.554 L 20.024 4.554 Z M 5.781 11.061 L 5.496 11.061 C 5.339 11.067 5.182 11.042 5.035 10.986 C 4.888 10.93 4.753 10.846 4.639 10.737 C 4.526 10.629 4.435 10.499 4.372 10.355 C 4.309 10.21 4.276 10.055 4.274 9.898 C 4.272 9.273 4.272 8.649 4.273 8.024 C 4.274 7.712 4.274 7.4 4.274 7.088 L 4.274 5.742 C 4.273 5.582 4.305 5.423 4.368 5.276 C 4.43 5.128 4.522 4.995 4.638 4.884 C 4.753 4.773 4.89 4.687 5.04 4.631 C 5.19 4.575 5.35 4.549 5.51 4.557 C 6.121 4.554 6.731 4.555 7.342 4.556 C 7.647 4.557 7.952 4.557 8.257 4.557 C 8.281 4.557 8.306 4.557 8.34 4.561 C 8.3 4.642 8.267 4.728 8.242 4.815 C 8.201 4.987 8.177 5.163 8.169 5.339 C 8.166 6.358 8.167 7.377 8.168 8.394 C 8.169 8.901 8.169 9.409 8.169 9.916 C 8.159 10.212 8.235 10.504 8.387 10.758 C 8.54 11.012 8.763 11.215 9.03 11.344 C 9.051 11.356 9.063 11.382 9.075 11.408 L 9.075 11.408 C 9.08 11.417 9.084 11.427 9.089 11.436 C 9.092 11.441 9.091 11.448 9.09 11.455 C 9.09 11.459 9.089 11.462 9.089 11.466 L 9.089 17.156 C 9.09 17.378 9.009 17.591 8.863 17.757 C 8.716 17.923 8.514 18.029 8.294 18.056 C 8.239 18.064 8.182 18.067 8.126 18.066 L 6.758 18.066 C 6.634 18.073 6.509 18.054 6.392 18.011 C 6.275 17.968 6.167 17.902 6.077 17.816 C 5.986 17.73 5.914 17.627 5.865 17.512 C 5.815 17.398 5.79 17.274 5.79 17.149 L 5.79 15.373 L 5.79 11.063 L 5.781 11.061 Z M 3.894 5.658 C 3.85 5.282 3.914 4.901 4.081 4.561 L 4.053 4.558 L 4.053 4.558 C 4.035 4.556 4.025 4.555 4.014 4.555 C 3.7 4.555 3.387 4.554 3.074 4.553 L 3.073 4.553 C 2.446 4.551 1.82 4.548 1.193 4.555 C 1.039 4.552 0.886 4.58 0.743 4.637 C 0.6 4.693 0.469 4.778 0.359 4.885 C 0.248 4.992 0.16 5.12 0.098 5.261 C 0.037 5.403 0.005 5.555 0.002 5.709 C -0.001 7.104 -0.001 8.499 0.002 9.894 C 0.004 10.053 0.038 10.209 0.102 10.354 C 0.166 10.499 0.258 10.63 0.373 10.739 C 0.489 10.847 0.625 10.931 0.773 10.986 C 0.922 11.041 1.08 11.065 1.239 11.058 L 1.515 11.058 L 1.515 11.171 L 1.515 17.135 C 1.512 17.261 1.536 17.387 1.585 17.504 C 1.634 17.62 1.707 17.726 1.798 17.813 C 1.89 17.9 1.999 17.967 2.118 18.01 C 2.237 18.053 2.364 18.071 2.49 18.062 C 2.642 18.062 2.793 18.062 2.945 18.063 L 2.946 18.063 C 3.25 18.064 3.554 18.065 3.858 18.062 C 3.97 18.061 4.081 18.043 4.187 18.01 C 4.375 17.952 4.537 17.834 4.65 17.673 C 4.763 17.513 4.819 17.32 4.811 17.124 L 4.811 11.474 C 4.811 11.469 4.811 11.465 4.812 11.46 C 4.813 11.451 4.815 11.441 4.811 11.435 C 4.807 11.427 4.803 11.418 4.799 11.41 C 4.787 11.383 4.774 11.354 4.753 11.342 C 4.486 11.213 4.264 11.009 4.111 10.755 C 3.959 10.502 3.883 10.21 3.894 9.914 L 3.894 5.658 Z M 15.631 4.556 L 15.631 4.556 C 15.641 4.556 15.649 4.555 15.658 4.555 C 15.965 4.555 16.273 4.554 16.58 4.554 L 16.581 4.554 L 16.581 4.554 L 16.581 4.554 L 16.581 4.554 L 16.581 4.554 C 17.196 4.553 17.81 4.552 18.426 4.555 C 18.714 4.547 18.995 4.643 19.218 4.827 C 19.44 5.01 19.589 5.268 19.636 5.553 C 19.645 5.619 19.649 5.686 19.647 5.753 L 19.647 9.859 C 19.65 10.023 19.619 10.186 19.555 10.338 C 19.492 10.49 19.397 10.626 19.278 10.739 C 19.158 10.853 19.017 10.94 18.862 10.995 C 18.707 11.05 18.542 11.073 18.378 11.061 L 18.136 11.061 L 18.136 11.176 L 18.136 17.129 C 18.144 17.325 18.086 17.517 17.973 17.677 C 17.859 17.837 17.696 17.954 17.509 18.011 C 17.405 18.043 17.298 18.06 17.189 18.061 C 16.883 18.065 16.577 18.064 16.27 18.062 C 16.116 18.062 15.962 18.061 15.807 18.061 C 15.682 18.069 15.556 18.051 15.438 18.008 C 15.32 17.966 15.212 17.899 15.121 17.812 C 15.03 17.726 14.958 17.621 14.909 17.505 C 14.86 17.389 14.836 17.265 14.837 17.139 L 14.837 12.523 L 14.837 11.459 C 14.835 11.431 14.841 11.402 14.856 11.379 C 14.871 11.355 14.893 11.336 14.92 11.326 C 15.123 11.225 15.301 11.078 15.44 10.899 C 15.58 10.719 15.677 10.51 15.724 10.287 C 15.745 10.193 15.756 10.097 15.756 10 L 15.756 5.424 C 15.773 5.124 15.709 4.826 15.572 4.559 C 15.598 4.559 15.616 4.558 15.631 4.556 Z M 12.933 0.53 C 12.648 0.323 12.308 0.204 11.955 0.188 C 11.713 0.182 11.472 0.225 11.246 0.313 C 11.02 0.4 10.814 0.532 10.639 0.7 C 10.464 0.867 10.324 1.068 10.227 1.29 C 10.129 1.512 10.077 1.75 10.072 1.993 C 10.073 2.345 10.177 2.69 10.372 2.984 C 10.567 3.278 10.844 3.508 11.169 3.646 C 11.493 3.784 11.851 3.824 12.198 3.761 C 12.545 3.697 12.866 3.533 13.121 3.289 C 13.375 3.045 13.553 2.732 13.631 2.388 C 13.709 2.044 13.685 1.684 13.561 1.354 C 13.437 1.024 13.218 0.737 12.933 0.53 Z" fill="currentColor" fill-rule="evenodd"></path>
</svg>