<svg xmlns="http://www.w3.org/2000/svg" width="23.922" height="23.922" viewBox="0 0 23.922 23.922" fill="none">
  <path d="M 2.25 11.961 C 2.25 6.598 6.598 2.25 11.961 2.25 C 17.324 2.25 21.672 6.598 21.672 11.961 C 21.672 17.324 17.324 21.672 11.961 21.672 C 6.598 21.672 2.25 17.324 2.25 11.961 Z M 11.961 0 C 5.355 0 0 5.355 0 11.961 C 0 18.567 5.355 23.922 11.961 23.922 C 18.567 23.922 23.922 18.567 23.922 11.961 C 23.922 5.355 18.567 0 11.961 0 Z M 7.989 12.96 L 7.989 10.785 L 9.247 10.783 L 9.247 9.794 C 9.247 7.099 10.523 5.571 13.184 5.571 C 14.121 5.572 15.052 5.736 15.934 6.056 L 15.592 8.522 C 15.002 8.29 14.375 8.169 13.741 8.162 C 12.627 8.162 12.087 8.755 12.087 10.013 L 12.087 10.786 L 14.532 10.786 L 14.532 12.961 L 12.087 12.961 L 12.087 13.68 C 12.142 14.052 12.098 14.433 11.959 14.783 C 11.82 15.133 11.592 15.441 11.297 15.675 L 11.297 15.711 L 15.718 15.711 L 15.718 17.976 L 8.15 17.976 L 8.061 15.818 C 8.96 15.549 9.248 14.938 9.248 13.966 L 9.248 12.96 L 7.989 12.96 Z" fill="currentColor" fill-rule="evenodd"></path>
</svg>